 http://img440.imageshack.us/img440/25/111111co.jpg


Verenigde Staten / Spanje
Horror / Thriller
95 minuten

geregisseerd door Darren Lynn Bousman
met Timothy Gibbs, Michael Landes en Wendy Glenn

Na de tragische dood van zijn vrouw en kind reist de beroemde Amerikaanse auteur Joseph Crone van de Verenigde Staten naar Barcelona om zich te herenigen met zijn vervreemde broer Samuel en zijn stervende vader Richard. Echter, het lot heeft een ander plan voor Joseph wanneer zijn leven wordt geplaagd door vreemde gebeurtenissen en de constante waarnemingen van het getal 11. De nieuwsgierigheid slaat al snel om in een obsessie en Joseph begint zich te realiseren dat het getal een angstaanjagende betekenis heeft, niet alleen voor zichzelf maar mogelijk voor elke religie. Hij zit geisoleerd in een vreemd land met alleen de steun van zijn metgezel Sadie en hij beseft al snel dat 11/11/11 meer is dan alleen een datum, het is een waarschuwing.





Screenshots:
 
http://img715.imageshack.us/img715/4678/screenshot1lu.jpg
 
http://img39.imageshack.us/img39/2234/screenshot2gzm.jpg
 
http://img545.imageshack.us/img545/9587/screenshot4fm.jpg



INFO;


Format                                   : AVI
Format/Info                              : Audio Video Interleave
File size                                : 700 MiB
Duration                                 : 1h 32mn
Overall bit rate mode                    : Variable
Overall bit rate                         : 1 053 Kbps
Writing application                      : VirtualDubMod 1.5.4.1 (build 2178/release)
Writing library                          : VirtualDubMod build 2178/release

Video
ID                                       : 0
Format                                   : MPEG-4 Visual
Format profile                           : Advanced Simple@L5
Format settings, BVOP                    : 1
Format settings, QPel                    : No
Format settings, GMC                     : No warppoints
Format settings, Matrix                  : Custom
Codec ID                                 : XVID
Codec ID/Hint                            : XviD
Duration                                 : 1h 32mn
Bit rate                                 : 924 Kbps
Width                                    : 720 pixels
Height                                   : 304 pixels
Display aspect ratio                     : 2.35:1
Frame rate                               : 25.000 fps
Color space                              : YUV
Chroma subsampling                       : 4:2:0
Bit depth                                : 8 bits
Scan type                                : Progressive
Compression mode                         : Lossy
Bits/(Pixel*Frame)                       : 0.169
Stream size                              : 614 MiB (88%)
Writing library                          : XviD 64

Audio
ID                                       : 1
Format                                   : MPEG Audio
Format version                           : Version 1
Format profile                           : Layer 3
Mode                                     : Joint stereo
Codec ID                                 : 55
Codec ID/Hint                            : MP3
Duration                                 : 1h 32mn
Bit rate mode                            : Variable
Bit rate                                 : 116 Kbps
Nominal bit rate                         : 128 Kbps
Channel(s)                               : 2 channels
Sampling rate                            : 48.0 KHz
Compression mode                         : Lossy
Stream size                              : 77.0 MiB (11%)
Alignment                                : Aligned on interleaves
Interleave, duration                     : 24 ms (0.60 video frame)
Interleave, preload duration             : 517 ms



 
http://www.imdb.com/title/tt1712159/ 
http://www.moviemeter.nl/film/73328




Deze film wordt u aangeboden door het DutchReleaseTeam.
Voor de reviews van de nieuwste films, muziek, series, games etc
ga dan eens naar http://www.hetmultimediacafe.be

DutchReleaseteam = Hardcoded Dutch Subs